<svg xmlns="http://www.w3.org/2000/svg" viewBox="0 0 2559 1440"><defs><style>.cls-1{opacity:0.27;}.cls-2{fill:#fff;}.cls-3,.cls-4{stroke:#fff;stroke-miterlimit:10;stroke-width:27px;}.cls-4{fill:none;stroke-linecap:round;}</style></defs><title>Puerquimica</title><g id="Quimica_Logo" data-name="Quimica Logo"><circle id="Fondo" cx="1279.5" cy="720" r="686.4"/><g id="Carbono" class="cls-1"><polygon class="cls-2" points="1648.76 508.2 1643.47 498.76 1735.95 443.67 1741.23 453.11 1648.76 508.2"/><polygon class="cls-2" points="822.49 988.45 817.03 979.61 912.01 928.38 917.47 937.22 822.49 988.45"/><polygon class="cls-2" points="1735.64 988.45 1637.89 926.22 1643.47 915.56 1741.23 977.79 1735.64 988.45"/><polygon class="cls-2" points="904.99 508.2 810.02 453.18 815.5 443.67 910.46 498.69 904.99 508.2"/><rect class="cls-2" x="1269.43" y="182.01" width="12.39" height="108.64"/><rect class="cls-2" x="1269.43" y="1144.57" width="12.39" height="105.55"/><path class="cls-2" d="M993.35,574.94c-4.15,2.08-12.47,4.16-23.11,4.16-24.67,0-43.24-15.58-43.24-44.28,0-27.4,18.57-46,45.71-46,10.91,0,17.79,2.34,20.78,3.9L990.76,502a41.15,41.15,0,0,0-17.66-3.64c-20.52,0-34.15,13.11-34.15,36.1,0,21.43,12.34,35.19,33.63,35.19,6.88,0,13.89-1.43,18.44-3.64Z"/><path class="cls-2" d="M993.35,939.12c-4.15,2.08-12.47,4.16-23.11,4.16C945.57,943.27,927,927.69,927,899c0-27.4,18.57-46,45.71-46,10.91,0,17.79,2.34,20.78,3.9l-2.73,9.22a41.15,41.15,0,0,0-17.66-3.64c-20.52,0-34.15,13.11-34.15,36.1,0,21.43,12.34,35.19,33.63,35.19,6.88,0,13.89-1.43,18.44-3.64Z"/><path class="cls-2" d="M1307.81,1121.94c-4.2,2-12.56,3.87-23.2,3.63-24.67-.56-42.88-16.55-42.23-45.24.62-27.39,19.6-45.54,46.73-44.93,10.9.25,17.73,2.74,20.68,4.36l-2.93,9.16a41.15,41.15,0,0,0-17.57-4c-20.51-.46-34.44,12.34-35,35.32-.48,21.42,11.54,35.46,32.83,35.94,6.88.15,13.92-1.12,18.52-3.22Z"/><path class="cls-2" d="M1622.74,939.6c-4.2,2-12.56,3.87-23.2,3.63-24.67-.56-42.88-16.55-42.23-45.24.62-27.39,19.6-45.54,46.73-44.93,10.9.25,17.73,2.74,20.68,4.36l-2.93,9.16a41.15,41.15,0,0,0-17.57-4c-20.51-.46-34.44,12.34-35,35.32-.48,21.42,11.54,35.46,32.83,35.94,6.88.15,13.92-1.12,18.52-3.22Z"/><path class="cls-2" d="M1622.74,574.61c-4.2,2-12.56,3.87-23.2,3.63-24.67-.56-42.88-16.55-42.23-45.24.62-27.39,19.6-45.54,46.73-44.93,10.9.25,17.73,2.74,20.68,4.36l-2.93,9.16a41.15,41.15,0,0,0-17.57-4c-20.51-.46-34.44,12.34-35,35.32-.48,21.42,11.54,35.46,32.83,35.94,6.88.15,13.92-1.12,18.52-3.22Z"/><path class="cls-2" d="M1307.36,393.34c-4.2,2-12.56,3.87-23.2,3.63-24.67-.56-42.88-16.55-42.23-45.24.62-27.39,19.6-45.54,46.73-44.93,10.9.25,17.73,2.74,20.68,4.36l-2.93,9.16a41.15,41.15,0,0,0-17.57-4c-20.51-.46-34.44,12.34-35,35.32-.48,21.42,11.54,35.46,32.83,35.94,6.88.15,13.92-1.12,18.52-3.22Z"/><path class="cls-2" d="M741.23,376v36.62h42.33V376H795v87.52H783.56v-41H741.23v41h-11.3V376Z"/><path class="cls-2" d="M1254.39,79.68V116.3h42.33V79.68h11.43V167.2h-11.43v-41h-42.33v41h-11.3V79.68Z"/><path class="cls-2" d="M1775.31,371.55v36.62h42.33V371.55h11.43v87.52h-11.43V418h-42.33v41H1764V371.55Z"/><path class="cls-2" d="M1767.55,968.57v36.62h42.33V968.57h11.43v87.52h-11.43v-41h-42.33v41h-11.3V968.57Z"/><path class="cls-2" d="M1254.39,1272.8v36.62h42.33V1272.8h11.43v87.52h-11.43v-41h-42.33v41h-11.3V1272.8Z"/><path class="cls-2" d="M747.56,964.92v36.62H789.9V964.92h11.43v87.52H789.9v-41H747.56v41h-11.3V964.92Z"/><path class="cls-2" d="M1048.68,465.61l-5.61-9.87L1158,390.43l5.61,9.87ZM1067,497.84l-5.61-9.87,114.91-65.31,5.61,9.87Z"/><path class="cls-2" d="M1061.39,944.43l5.61-9.87,114.91,65.31-5.61,9.87Zm-18.32,32.23,5.61-9.87,114.91,65.31L1158,1042Z"/><path class="cls-2" d="M1603.89,650h11.35l-.05,132.18h-11.35Zm-37.07,0h11.35l-.05,132.18h-11.35Z"/><path class="cls-2" d="M954.6,650h11.35l-.05,132.18H954.54Z"/><path class="cls-2" d="M1374.77,416l5.53-9.91,115.44,64.37-5.53,9.91Z"/><path class="cls-2" d="M1380.29,1026.07l-5.53-9.91,115.44-64.37,5.53,9.91Z"/></g><g id="Matraz"><path class="cls-3" d="M1351.65,815.86V467.76h29.77a5.87,5.87,0,0,0,5.87-5.87V423.42a5.87,5.87,0,0,0-5.87-5.87h-202a5.87,5.87,0,0,0-5.87,5.87v38.47a5.87,5.87,0,0,0,5.87,5.87h29.77V815.86c-116.8,31.34-202.81,137.9-202.89,264.57a273.54,273.54,0,0,0,275.58,274.27c150.7-.8,272.62-123.21,272.62-274.1C1554.53,953.85,1468.5,847.21,1351.65,815.86Z"/><line class="cls-4" x1="1209.22" y1="519.26" x2="1280.43" y2="519.26"/><line class="cls-4" x1="1209.22" y1="593.49" x2="1260.45" y2="593.49"/><line class="cls-4" x1="1209.22" y1="667.72" x2="1280.43" y2="667.72"/><line class="cls-4" x1="1209.22" y1="741.95" x2="1260.45" y2="741.95"/><path class="cls-2" d="M1517.3,1076c0,133.2-103.67,245.78-236.87,245.78s-235-110.94-235-244.13c0,0,77.54-44.31,235,3S1517.3,1076,1517.3,1076Z"/><circle class="cls-2" cx="1255.09" cy="341.55" r="33.14"/><circle class="cls-2" cx="1302.78" cy="255.54" r="22.35"/><circle class="cls-2" cx="1260.05" cy="197.69" r="11.37"/></g><path id="Puerco" d="M1297.79,1190.6l-10.72,0a.27.27,0,0,0-.24.38l1.17,2.42a1,1,0,0,1-.22,1.2,23.24,23.24,0,0,1-3.8,2.7c-3.52,2.11-12.45,3.76-12.45,3.76A45.09,45.09,0,0,0,1269,1179c-3.86-10-11.87-19.35-22.17-26.36q-1.53-1.37-3.18-2.67l.79-26.2a.88.88,0,0,0-1.52-.62L1227.41,1140a79.25,79.25,0,0,0-33.36-7.4c-13,.19-27.63,4.31-28.76,4.78l-12.9-11.16a1,1,0,0,0-1.63,1l1.56,10.06a25.08,25.08,0,0,0-7.56,1.26c-11.55,3.78-18.26,14.92-15,24.89q.15.47.33.93a22.45,22.45,0,0,0-9.17,12.56,25.53,25.53,0,0,0-.46,11.35c.13.32.28.64.42,1,1.87,8.14,7.75,15.47,16.88,20a62.55,62.55,0,0,0,5.68,6.85,9.93,9.93,0,0,0-.84,2.67c-1.74,10.47.59,21.2,7.84,24.33,6,2.62,11.44,0,16.8-6.13a44.24,44.24,0,0,0,9.83,4.4c2.54,8.11,6.14,14.22,12.57,16.14,6,1.8,11-4,13.13-13.69h0c3.41,6.55,12.78,14.69,19.13,12.61a17.84,17.84,0,0,0,9.62-8c4.52,4.09,9.89,6,14.73,4.47,7.85-2.48,11.47-11.86,9.65-23.27a52.42,52.42,0,0,0,13.14-19h0c3.5,0,7.52-1.65,12.68-3.32a57.14,57.14,0,0,0,11-5.47.68.68,0,0,1,.81.06l1.65,1.44a.61.61,0,0,0,1-.35l2.19-11.52A.61.61,0,0,0,1297.79,1190.6Z"/></g></svg>